<svg id="图层_1" data-name="图层 1" xmlns="http://www.w3.org/2000/svg" viewBox="0 0 451.4 596.66"><defs><style>.cls-1,.cls-2{fill:#6cf;}.cls-1{opacity:0.5;}.cls-3{fill:#3000ff;}.cls-4{fill:#06f;opacity:0.75;}.cls-5{font-size:60px;font-family:Helvetica-Bold, Helvetica;font-weight:700;letter-spacing:0.2em;}</style></defs><title>未标题-2</title><circle class="cls-1" cx="205.89" cy="6.73" r="6.73"/><circle class="cls-1" cx="299.01" cy="60.99" r="6.73"/><circle class="cls-1" cx="392.14" cy="115.3" r="6.73"/><circle class="cls-1" cx="392.14" cy="224.92" r="6.73"/><circle class="cls-1" cx="392.14" cy="331.44" r="6.73"/><line class="cls-2" x1="451.4" y1="223.15" x2="451.4" y2="223.17"/><circle class="cls-3" cx="205.89" cy="216.51" r="18.32"/><circle class="cls-3" cx="18.32" cy="114.91" r="18.32"/><circle class="cls-3" cx="111.81" cy="165.55" r="18.32"/><circle class="cls-3" cx="18.32" cy="330.82" r="18.32"/><circle class="cls-3" cx="18.32" cy="222.87" r="18.32"/><circle class="cls-3" cx="112.1" cy="385.35" r="18.32"/><circle class="cls-3" cx="112.1" cy="273.67" r="18.32"/><circle class="cls-3" cx="205.28" cy="327.64" r="18.32"/><circle class="cls-3" cx="205.29" cy="438.77" r="18.32"/><circle class="cls-4" cx="112.1" cy="60.56" r="12.18"/><circle class="cls-4" cx="205.89" cy="105.39" r="12.09"/><circle class="cls-4" cx="299.01" cy="385.2" r="12.09"/><circle class="cls-4" cx="299.01" cy="166.08" r="12.09"/><circle class="cls-4" cx="299.01" cy="273.98" r="12.09"/><text class="cls-5" transform="translate(131.31 567.81)">DSS</text></svg>