<svg id="图层_1" data-name="图层 1" xmlns="http://www.w3.org/2000/svg" viewBox="0 0 537.82 457.09"><defs><style>.cls-1{fill:#b3b3b3;opacity:0.5;}.cls-2{fill:#2a2a2a;}.cls-3{fill:#585858;opacity:0.75;}</style></defs><title>DSS_NPURDSS</title><circle class="cls-1" cx="280.05" cy="6.73" r="6.73"/><circle class="cls-1" cx="373.17" cy="60.99" r="6.73"/><circle class="cls-1" cx="466.3" cy="115.3" r="6.73"/><circle class="cls-1" cx="466.3" cy="224.92" r="6.73"/><circle class="cls-1" cx="466.3" cy="331.44" r="6.73"/><circle class="cls-2" cx="280.05" cy="216.51" r="18.32"/><circle class="cls-2" cx="92.49" cy="114.91" r="18.32"/><circle class="cls-2" cx="185.97" cy="165.55" r="18.32"/><circle class="cls-2" cx="92.49" cy="330.82" r="18.32"/><circle class="cls-2" cx="92.49" cy="222.87" r="18.32"/><circle class="cls-2" cx="186.27" cy="385.35" r="18.32"/><circle class="cls-2" cx="186.27" cy="273.67" r="18.32"/><circle class="cls-2" cx="279.44" cy="327.64" r="18.32"/><circle class="cls-2" cx="279.46" cy="438.77" r="18.32"/><circle class="cls-3" cx="186.27" cy="60.56" r="12.18"/><circle class="cls-3" cx="280.05" cy="105.39" r="12.09"/><circle class="cls-3" cx="373.17" cy="385.2" r="12.09"/><circle class="cls-3" cx="373.17" cy="166.08" r="12.09"/><circle class="cls-3" cx="373.17" cy="273.98" r="12.09"/><text x="-698.69" y="-143.62"></text><text x="-698.69" y="-143.62"></text></svg>